/* XPM */
static char *result[] = {
/* columns rows colors chars-per-pixel */
"32 32 65 1 ",
"  c #2C2C2C",
". c #2D2D2D",
"X c gray18",
"o c #2F2F2F",
"O c #312C34",
"+ c gray19",
"@ c #313131",
"# c #323232",
"$ c gray20",
"% c #343434",
"& c #373737",
"* c gray22",
"= c #393939",
"- c #3A3A3A",
"; c gray23",
": c gray24",
"> c #3E3E3E",
", c #3F3F3F",
"< c #56632F",
"1 c #607335",
"2 c #707E30",
"3 c gray25",
"4 c #414141",
"5 c gray26",
"6 c #434343",
"7 c #444444",
"8 c gray27",
"9 c #464646",
"0 c gray28",
"q c #494949",
"w c gray29",
"e c #4B4B4B",
"r c #4C4C4C",
"t c gray30",
"y c #4E4E4E",
"u c gray31",
"i c #505050",
"p c #515151",
"a c gray32",
"s c #535353",
"d c #555555",
"f c #565656",
"g c gray34",
"h c #585858",
"j c #5A5A5A",
"k c gray36",
"l c #606060",
"z c gray38",
"x c #626262",
"c c gray40",
"v c gray42",
"b c #6C6C6C",
"n c gray43",
"m c #6F6F6F",
"M c #747474",
"N c gray46",
"B c #777777",
"V c #7D8733",
"C c #959C4F",
"Z c #808080",
"A c #818181",
"S c #848484",
"D c #8E8E8E",
"F c gray58",
"G c #9A9A9A",
/* pixels */
"2V2V22V12222221111<111C112V121VV",
"V221221VV2V2VV22V111<1V12V212212",
"1211121V1<C11VV1111211111121CV11",
"1112V1121<V1<<21<<1V12V1<<11CV1V",
"11122C11112111111<1V2V111V21V22V",
"2OOOOOOOOOOOOOOOOOOOOOOOOOOOOOV1",
"1ZNZFNNZFFFZZNZFFZNNNZZNZZNNZFO1",
"COOOOOOOOOOOOOOOOOOOOOOOOOOOOZOC",
"1ggq6hOMhahq9aaapsst9,9aapr>OZO1",
"2Ax66xOvaha69tptfse,,7,ekpatOZO1",
"Vvvx6aOhh,6a99898,,kpppe,89>OBO1",
"CMMahqO&&&&&&7,7,bxiuwu::6q>OBOV",
"CAMhh,OOOOOOO9898jjkpppe,89>OBOV",
"2AMha6OhvNvzO,8,pcbjuiue:55=OZOV",
"2AvaaqOqxxxgO&j,piyiuwu::w8=OZOV",
"2Mh66qOxNxNAO&w&ewtit9tde=87OaO2",
"2Mvx6aOhvxvzO&&,&&&ttet83=:0OxO2",
"1AhhhmOqxNxgOOOOOOOue6e**,;+OZO<",
"2vgq6hOxNxNAOhvNhmO,=&=e4*.oOZO1",
"2MA66xOxNxNAOzMzzSO&juj4>&$ OBO1",
"2Avx6aOhvxvzOzlzhFO&aaa6-#&#OZOC",
"2AMahqOqxNxgOhlMznO&&&&&&@@oOBOV",
"2vNhhmOxNxNAOzhzhFOOOOOOO+%oOBO2",
"<MzqzNOaNhNvOhZMznOhavazO#+XODO<",
"1vzlhmOOOOOOOOOOOOOOOOOOOOOOOBO1",
"1DDGDDDGGDGDGBGBDDBBDGDBBDGDDBO1",
"COOOOOOOOOOOOOOOOOOOOOOOOOOOOOO1",
"V121121122<1121221112C1<2222C212",
"1111112121111V2V11VV1C1<<<2V2111",
"12112V2112C21V2V1V211221V1222VC1",
"1V12C211V1<2122222112C1V2C21111V",
"1C2CV12C11<<<1111112C1VC1CV21111"
};
