/* XPM */
static char *result[] = {
/* columns rows colors chars-per-pixel */
"32 32 38 1 ",
"  c black",
". c #232325",
"X c #3B2820",
"o c #473D3D",
"O c #724A37",
"+ c #56632F",
"@ c #607335",
"# c #707E30",
"$ c #5A3747",
"% c #584C4C",
"& c #585445",
"* c #525458",
"= c #79614E",
"- c #6A6450",
"; c #545566",
": c #717469",
"> c #A75E1F",
", c #CA7929",
"< c #A66F49",
"1 c #A6775B",
"2 c #817A63",
"3 c #AA6F79",
"4 c #7D8733",
"5 c #959C4F",
"6 c #D99A75",
"7 c #F0A47B",
"8 c #6B6E84",
"9 c #7A7F97",
"0 c #968F86",
"q c #B1A88B",
"w c #8F95B1",
"e c #F5BC8B",
"r c #FED6A5",
"t c #FEDEBD",
"y c #ADB2CB",
"u c #DFD1C8",
"i c #D8DAEC",
"p c white",
/* pixels */
"#4#4##4@######@@@..>O..@@#4@#@44",
"4##@##@44#4#44##.>OO>,>.#4#@##@#",
"@#@@@#@4@+5@@44.O37e7O>O.@#@54@@",
"@@@#4@@#@+4@++#@.7eeee,O.+@@54@4",
"@@@##5@@@@#@@@@@.pteptOO.4#@4##4",
"#4@@#5@@#@@@@@#4#o3ro3Oe.@4###4@",
"@...#4@#5@@@@@@@.e7p7e37.@@#@@@@",
"5.pi.#@44@4#@#@@.te37t3.##@@@#45",
"@.8pi.@#@@#@@#4@.3rre73.@@@@++@@",
"#@.9pi.@++@@@@#5+.3e73X #@##@..@",
"4@+.9pi.+@#45@@#4+.$$$..4@@#.q.@",
"5@@@.9pi.@@@455+...611%%.@@.2q.4",
"5@@45.wpi.@@+#4.*u**%..*%..-q&.4",
"#@45#@.wpi.@++..::p0u.-..-uq-&.4",
"##44@@4.wpi.+.i.*00p0.ppuu2--&.4",
"###@@@4#.ypi.w8.::u0u.p2222--&.#",
"#@@@4##44.y;w8..*0:u:.q2222--&.#",
"@##@@44###.w;;.*.:0:0.q2222--&.+",
"##@@#@@#@.w8;t.*.0:0:.q22:2--&.@",
"#5@5#@@@.i8.t3e..<*:*.q2::2--&.@",
"#5#4@@##@..@.e8w.*<<<.q2::2--&.5",
"#4##@54@@@++@..y.:0:0.222:2--.#4",
"#####4@@#5@+@@4.:u:u%0.-22--&.@#",
"+#@+###@5+@@@@##.%%....&-2--.@@+",
"@##@##@#5+@4#@#@.:*.@@..&--&.@@@",
"@#5@4@@5@@4#@+@@.%:%.4.*..&.@@#@",
"5@4@54@@#5#+@#@@.113.@.%*%.@@4#@",
"4@#@@#@@##+@@#@##.==.5.111.#5#@#",
"@@@@@@#@#@@@@4#4.1=%.5@.=%.4#@@@",
"@#@@#4#@@#5#@4#.1=%%.#.11=.##45@",
"@4@#5#@@4@+#@##.....#5.1=%.@@@@4",
"@5#54@#5@@+++@@@@@@#5@....4#@@@@"
};
