/* XPM */
static char *result[] = {
/* columns rows colors chars-per-pixel */
"32 32 68 1 ",
"  c black",
". c #232325",
"X c #3B2820",
"o c #312C34",
"O c #373737",
"+ c #3E3E3E",
"@ c #3F3F3F",
"# c #473D3D",
"$ c #724A37",
"% c #56632F",
"& c #607335",
"* c #707E30",
"= c #5A3747",
"- c #434343",
"; c #444444",
": c gray27",
"> c #464646",
", c #494949",
"< c #4C4C4C",
"1 c gray30",
"2 c #584C4C",
"3 c #585445",
"4 c #515151",
"5 c gray32",
"6 c #565656",
"7 c gray34",
"8 c #525458",
"9 c #585858",
"0 c gray36",
"q c #79614E",
"w c #6A6450",
"e c #545566",
"r c #606060",
"t c gray38",
"y c #626262",
"u c gray42",
"i c #6F6F6F",
"p c #717469",
"a c #747474",
"s c gray46",
"d c #777777",
"f c #A75E1F",
"g c #CA7929",
"h c #A66F49",
"j c #A6775B",
"k c #817A63",
"l c #AA6F79",
"z c #7D8733",
"x c #959C4F",
"c c #D99A75",
"v c #F0A47B",
"b c #6B6E84",
"n c #7A7F97",
"m c #808080",
"M c #818181",
"N c #8E8E8E",
"B c #968F86",
"V c gray58",
"C c #9A9A9A",
"Z c #B1A88B",
"A c #8F95B1",
"S c #F5BC8B",
"D c #FED6A5",
"F c #FEDEBD",
"G c #ADB2CB",
"H c #DFD1C8",
"J c #D8DAEC",
"K c white",
/* pixels */
"*z*z**z&******&&&..f$..&&*z&*&zz",
"z**&**&zz*z*zz**.f$$fgf.*z*&**&*",
"&*&&&*&z&%x&&zz.$lvSv$f$.&*&xz&&",
"&&&*z&&*&%z&%%*&.vSSSSg$.%&&xz&z",
"&&&**x&&&&*&&&&&.KFSKF$$.z*&z**z",
"*oooooooooooooooo#lD#l$S.oooooz&",
"&...VssmVVVmmsmV.SvKvSlv.mssmVo&",
"x.KJ.ooooooooooo.FSlvFl.ooooomox",
"&.bKJ.oa959,>555.lDDSvl.54<+omo&",
"*M.nKJ.u595->1416.lSvlX 0451o..&",
"zuu.nKJ.9@-5>>:>:@.===..@:>+.Z.&",
"xaa5.nKJ.OOOO;@;...cjj22.-,.kZ.z",
"xMa99.AKJ.ooo>:.8H882..82..wZ3.z",
"*Ma95-.AKJ.to@..ppKBH.w..wHZw3.z",
"*Mu55,o.AKJ.o.J.8BBKB.KKHHkww3.z",
"*a9--,oy.GKJ.Ab.ppHBH.Kkkkkww3.*",
"*auy-5o9u.GeAb..8BpHp.Zkkkkww3.*",
"&M999io,ys.Aee.8.pBpB.Zkkkkww3.%",
"*u7,-9oys.AbeF.8.BpBp.Zkkpkww3.&",
"*aM--yoy.Jb.FlS..h8p8.Zkppkww3.&",
"*Muy-5o9u..t.SbA.8hhh.Zkppkww3.x",
"*Ma59,o,ysy7o..G.pBpB.kkkpkww.oz",
"*us99ioysysMot9.pHpH2B.wkkww3.o*",
"%at,tso5s9suo9ma.22....3wkww.No%",
"&utr9ioooooooooo.p8.oo..3ww3.do&",
"&NNCNNNCCNCNCdCd.2p2.C.8..3.Ndo&",
"xooooooooooooooo.jjl.o.282.oooo&",
"z&*&&*&&**%&&*&**.qq.x.jjj.*x*&*",
"&&&&&&*&*&&&&z*z.jq2.x&.q2.z*&&&",
"&*&&*z*&&*x*&z*.jq22.*.jjq.**zx&",
"&z&*x*&&z&%*&**.....*x.jq2.&&&&z",
"&x*xz&*x&&%%%&&&&&&*x&zx&xz*&&&&"
};
