/* XPM */
static char *result[] = {
/* columns rows colors chars-per-pixel */
"32 32 97 2 ",
"   c #2C2C33",
".  c #2F3D36",
"X  c #3A473C",
"o  c #3D493B",
"O  c #3E493B",
"+  c #3E4B3A",
"@  c #3F4C3A",
"#  c #454E3B",
"$  c #46503A",
"%  c #47503A",
"&  c #48543F",
"*  c #49553F",
"=  c #4E573E",
"-  c #4C593D",
";  c #4C5A3D",
":  c #4D5A3D",
">  c #4C5A3E",
",  c #4F5E3D",
"<  c #515E3B",
"1  c #505E3C",
"2  c #575E3E",
"3  c #56632F",
"4  c #576234",
"5  c #51603B",
"6  c #53613B",
"7  c #53623A",
"8  c #55603B",
"9  c #57613A",
"0  c #54623B",
"q  c #56633B",
"w  c #566639",
"e  c #576739",
"r  c #54643A",
"t  c #53613C",
"y  c #586339",
"u  c #59633A",
"i  c #5B6738",
"p  c #5C673A",
"a  c #5C643C",
"s  c #5C653D",
"d  c #5A6B38",
"f  c #5E6939",
"g  c #5F6939",
"h  c #5F683C",
"j  c #616D37",
"k  c #626E36",
"l  c #646F37",
"z  c #636D3A",
"x  c #656D3A",
"c  c #676F3B",
"v  c #607335",
"b  c #627337",
"n  c #677039",
"m  c #667238",
"M  c #707E30",
"N  c #737E34",
"B  c #373740",
"V  c #353C47",
"C  c #373D46",
"Z  c #3D4441",
"A  c #3E4743",
"S  c #394045",
"D  c #3B4344",
"F  c #414B42",
"G  c #454B43",
"H  c #434D42",
"J  c #474F41",
"K  c #455140",
"L  c #475240",
"P  c #495240",
"I  c #505840",
"U  c #444C52",
"Y  c #5F6A41",
"T  c #61684B",
"R  c #646A4B",
"E  c #6A704B",
"W  c #6A714B",
"Q  c #6B724C",
"!  c #6D744C",
"~  c #727746",
"^  c #727845",
"/  c #757A46",
"(  c #757D44",
")  c #797D4C",
"_  c #666659",
"`  c #7D8733",
"'  c #7A804C",
"]  c #7F834C",
"[  c #71806E",
"{  c #808736",
"}  c #838A4E",
"|  c #959C4F",
" . c #999C4D",
".. c #909984",
"X. c #C4CCB0",
"o. c #E9F3D1",
"O. c white",
/* pixels */
"M ` M ` M M ` v M M M M M M v v v v 3 v v v | v v M ` v M v ` ` ",
"` M M v M M v ` ` M ` M ` U _ _ _ _ _ _ _ U ` v M ` M v M M v M ",
"v M v v v M v ` v 3 | v _ ..O.X.X.X.X.X.X.X.  v v v M v | ` v v ",
"v v v M ` v v M v 3 ` v _ O.X.X.X.X.X.X.X.O.O.  3 3 v v | ` v ` ",
"v v v M M | v v v v M _ O.X.X.X.X.X.X.X.O.[ _ _   ` M v ` M M ` ",
"M ` v v M | v v M v _ X.o.X.O.O.O.O.O.O.[ .._ _   v ` M M M ` v ",
"v M | v M ` v M | _ o.o.X.....X............._ _   v v M v v v v ",
"| v M ` M M v ` ` _ X.X.........X......._ _ _ _ ..  v v v M ` | ",
"v M M M M M v _ U ..X.o........................._   v v 3 3 v v ",
"M v M 3 v v _ o.o.....[ [ [ X.............o..._ _     M v 3 3 v ",
"` v 3 v v U o.X.X.X.X.X.....[ [ X.....[ ...._ _ _ _ ..    v v v ",
"| v v   U o.X.X...X.X.X.X...X.X.[ ..[ ...._ _ ....[ ........v ` ",
"| U U _ [ ..O...X.X.X.X.X.X.X.X.X......._ ......[ ......X._   ` ",
"U _ _ _ [ [ [ O...X.X.X.X.X.[ ..X.....................X.U X.U   ",
"U _ _ _ _ [ X.[ O.O.O.O.O.O.O.O...X.....[ [ X.......X.X.O.U U   ",
"U _ U _ _ [ [ [ [ [ [ [ [ [ [ [ [ ..X.[ [ [ _ X.X.X.O.X.U U U   ",
"U _ U _ _ [ [ [ [ _ [ [ [ [ [ [ [ _ ......[ _ _ [ [ [ [ U U [ _ ",
"  U U U U [ [ [ .._ [ [ [ [ [ _ _ _ .._ _ .._ _ [ _ [ [ [ _ _ _ ",
"U _ U U U U [ [ [ ..[ [ [ _ _ _ _ [ [ _ U [ _ _ [ [ [ [ [ [ _ _ ",
"U _ _ _ U U U U [ [ _ _ _ _ _ _ _ _ [ U U _ [ _ _ _ [ [ [ _ [   ",
"j   _ _ _ _ U [ [ [ _ [ [ [ [ _ _ _ [ _ U _ [ _ _ _ _ [ [ [ [   ",
"i a   _ _ _ U U U _ _ [ [ [ [ [ _ _ _ ........[ [ _ _ [ [ [   2 ",
"9 =   U U U U U U _ _ _ U _ _ _ _ _ [ [ ......U U _ _ [ [ [   P ",
"#   U U U U U U U U U U _ _ _ _ _ _ [ _ _ _ ..U U U _ _ _ [   Z ",
"*   U U U   B B B U U U U _ _ _ _ _ _ _ _ _ _ U U U _ _ _ [ [   ",
"&   U U U U   B B B B B U U _ _ _ _ _ U _ _ _ U U U U _ _ _ [   ",
"R H         V .         B B B     _ _ [ _ _ . U B U U U U U U   ",
"a K . D S . . N . C . . . B B B     _ . _ .  ..   .   .       J ",
", . N . . N { N b . N  .N .         . N . . N N . { . N . A F L ",
"7 b { b N  .N b b { b . N b N G A . N b . N  .b { N  .N . I T - ",
"e m ( l ] n 0 p / 6 < o X O q o o o t t g ) t c ~ Y ^ z f + @ 4 ",
"d } k ' x 1 y ! ; : % $ $ > > > > > > 8 E - s W : Q h u 1 5 r w "
};
