/* XPM */
static char *result[] = {
/* columns rows colors chars-per-pixel */
"32 32 34 1 ",
"  c #17312D",
". c #232325",
"X c #56632F",
"o c #4B7338",
"O c #607335",
"+ c #707E30",
"@ c #424447",
"# c #584C4C",
"$ c #585445",
"% c #525458",
"& c #406654",
"* c #406754",
"= c #79614E",
"- c #6A6450",
"; c #545566",
": c #604861",
"> c #717469",
", c #A66F49",
"< c #A6775B",
"1 c #817A63",
"2 c #7D8733",
"3 c #6F8C44",
"4 c #959C4F",
"5 c #97AB46",
"6 c #D0CB47",
"7 c #6B6E84",
"8 c #7A7F97",
"9 c #968F86",
"0 c #B1A88B",
"q c #8F95B1",
"w c #ADB2CB",
"e c #DFD1C8",
"r c #D8DAEC",
"t c white",
/* pixels */
"+2+2++2O++++++OOOOXOOO  O+2O+O22",
"2++O++O22+2+22++2OOOXO 5 2+O++O+",
"O+OOO+O2OX  O22     OOO 6 +O42OO",
"OOO+2OO+O 5 XX 5t63o +2 5 OO42O2",
"O.O++4OOO 3&O 3665o5o  5& +O2++2",
".t.O+4OO+O & ooo3366o 5&3 2+++2O",
".rt.+2O+4OO  565o6   &o3 OO+OOOO",
"7wrt.+O22O2+   36 t o&&5 +OOO+24",
".7wrt.O+OO+OO t 3& &35  OOOOXXOO",
"+.8wrt.OXXOOO  &63*63 .O+O++OX..",
"2O.8wrt.XO+24 5&t3o53 %.2OO+2.0.",
"4OO.8wrt.OOO24    *3o %.+OOO.10.",
"4OO2.qwrt.OOX+ &663o %...OO.-0$.",
"+O24+.qwrt.OX.+ 33o %9.-..-e0-$.",
"++22OO.qwrt..r.O 5 %e>.ttee1--$.",
"+++OOO2.wwr;q7.+2 %e>9.t1111--$.",
"+OOO2++2.w;q7.O+..e>e>.01111--$.",
"O++OO22++.q;;.+.%.>e>9.01111--$.",
"++OO+OO+.q7;<..%.:9>9>.011>1--$.",
"+4O4+OO.r7.<#=%%.@,,,:.01>>1--$.",
"+4+2OO++..O.=qww.9%e%9.01>>1--$.",
"+2++O42OOOXX..r7.@@@@@.111>1--.2",
"+++++2OO+4OXOO...9%@..>.-11--$.+",
"X+OX+++O4XOOOO+.9>%.+.9.$-1--.OX",
"O++O++O+4XO2+O+.>%.+O.9>.$--$.OO",
"O+4O2OO4OO2+OXO.%%@.2.%>>..$.O+O",
"4O2O42OO+4+XO+O.<<#.OO.%%.2OO2+O",
"2O+OO+OO++XOO+O..##.+.<<##++4+O+",
"OOOOOO+O+OOOO2.<==#.O4.##.+2+OOO",
"O+OO+2+OO+4+O.<==#.OO.<=#.+++24O",
"O2O+4+OO2OX+O.....OO.<==#.+OOOO2",
"O4+42O+4OOXXXOOOOOO+.....42+OOOO"
};
