/* XPM */
static char *result[] = {
/* columns rows colors chars-per-pixel */
"32 32 5 1 ",
"  c #56632F",
". c #607335",
"X c #707E30",
"o c #7D8733",
"O c #959C4F",
/* pixels */
"XoXoXXo.XXXXXX.... ...O..Xo.X.oo",
"oXX.XX.ooXoXooXXo... .o.XoX.XX.X",
".X...X.o. O..oo....X......X.Oo..",
"...Xo..X. o.  X.  .o.Xo.  ..Oo.o",
"...XXO....X...... .oXo...oX.oXXo",
"Xo..XO..X.....XoX.....Xo..oXXXo.",
".XO.Xo.XO.......XX. ...Xo..X....",
"O.XoXX.oo.oX.X..XOX  X..XX...XoO",
".XXXXX.X..X..Xo. oO..o......  ..",
"X.X .. .  ....XO Xo.Oo..X.XX.  .",
"o. ..X.. .XoO..Xo o.o..Oo..Xo...",
"O...XX..X...oOO oXXXX.XoX...oO.o",
"O..oO...oX.. XoXX. XX.......oO.o",
"X.oOX...Oo..  XX  XXoO..Xo..Xo.o",
"XXoo..o.OO.. ....XX.XoO..Xo.XXXo",
"XXX...oXoo.oX..XoXOXX.oX..XXXXXX",
"X...oXXooXoO...X..o.O..X.....X.X",
".XX..ooXXXXooOX...X.oX...XX...  ",
"XX..X..X.X...XoX. ...X..Oo..X...",
"XO.OX......X....  ......o....Xo.",
"XOXo..XX....XX.  .XX.oX.X.Xo.XOO",
"XoXX.Oo...  .oX..oo....XX..oo.Xo",
"XXXXXo..XO. ..oXoOX.oX......X..X",
" X. XXX.O ....XXoX.oX......X... ",
".XX.XX.XO .oX.X.XXoX....o.Xo....",
".XO.o..O..oX. ....XoooX.O.O...X.",
"O.o.Oo..XOX .X..XX......o.o..oX.",
"o.X..X..XX ..X.XX...XO. XXXXOX.X",
"......X.X....oXo..oo.O.   XoX...",
".X..XoX..XOX.oXo.oX..XX.o.XXXoO.",
".o.XOX..o. X.XXXXX..XO.oXOX....o",
".OXOo.XO..   ......XO.oO.OoX...."
};
